<svg width="30" height="30" viewBox="0 0 30 30" fill="none" xmlns="http://www.w3.org/2000/svg">
<g clip-path="url(#clip0)">
<path d="M10.9303 16.5509C10.9303 16.1751 10.6255 15.8706 10.2494 15.8706H7.87319C7.49751 15.8706 7.19263 16.1751 7.19263 16.5509V18.9268C7.19263 19.3031 7.49751 19.6076 7.87319 19.6076H10.2494C10.6255 19.6076 10.9303 19.3031 10.9303 18.9268V16.5509Z" fill="#E5E5E5"/>
<path d="M16.8687 16.5509C16.8687 16.1751 16.5638 15.8706 16.1884 15.8706H13.8119C13.4362 15.8706 13.1313 16.1751 13.1313 16.5509V18.9268C13.1313 19.3031 13.4362 19.6076 13.8119 19.6076H16.1884C16.5638 19.6076 16.8687 19.3031 16.8687 18.9268V16.5509Z" fill="#E5E5E5"/>
<path d="M22.8075 16.5509C22.8075 16.1751 22.5027 15.8706 22.127 15.8706H19.7508C19.3746 15.8706 19.0698 16.1751 19.0698 16.5509V18.9268C19.0698 19.3031 19.3746 19.6076 19.7508 19.6076H22.127C22.5027 19.6076 22.8075 19.3031 22.8075 18.9268V16.5509Z" fill="#E5E5E5"/>
<path d="M10.9303 22.4898C10.9303 22.1134 10.6255 21.8092 10.2494 21.8092H7.87319C7.49751 21.8092 7.19263 22.1134 7.19263 22.4898V24.8653C7.19263 25.2414 7.49751 25.5459 7.87319 25.5459H10.2494C10.6255 25.5459 10.9303 25.2413 10.9303 24.8653V22.4898Z" fill="#E5E5E5"/>
<path d="M16.8687 22.4898C16.8687 22.1134 16.5638 21.8092 16.1884 21.8092H13.8119C13.4362 21.8092 13.1313 22.1134 13.1313 22.4898V24.8653C13.1313 25.2414 13.4362 25.5459 13.8119 25.5459H16.1884C16.5638 25.5459 16.8687 25.2413 16.8687 24.8653V22.4898Z" fill="#E5E5E5"/>
<path d="M22.8075 22.4898C22.8075 22.1134 22.5027 21.8092 22.1273 21.8092H19.7508C19.3746 21.8092 19.0698 22.1134 19.0698 22.4898V24.8653C19.0698 25.2414 19.3746 25.5459 19.7508 25.5459H22.1273C22.5027 25.5459 22.8075 25.2413 22.8075 24.8653V22.4898Z" fill="#E5E5E5"/>
<path d="M27.0563 3.34042V6.96941C27.0563 8.60968 25.7257 9.93148 24.0857 9.93148H22.2117C20.5715 9.93148 19.2233 8.60968 19.2233 6.96941V3.32739H10.7767V6.96941C10.7767 8.60968 9.42848 9.93148 7.78858 9.93148H5.91422C4.27426 9.93148 2.94367 8.60968 2.94367 6.96941V3.34042C1.51033 3.38363 0.33252 4.56967 0.33252 6.02747V27.2951C0.33252 28.7803 1.53633 30.0001 3.02154 30.0001H26.9784C28.4614 30.0001 29.6674 28.7778 29.6674 27.2951V6.02747C29.6674 4.56967 28.4897 3.38363 27.0563 3.34042ZM26.1859 25.9707C26.1859 26.6126 25.6655 27.1333 25.0234 27.1333H4.92533C4.28324 27.1333 3.76282 26.6126 3.76282 25.9707V14.9852C3.76282 14.3431 4.28317 13.8224 4.92533 13.8224H25.0234C25.6655 13.8224 26.1859 14.3431 26.1859 14.9852L26.1859 25.9707Z" fill="#E5E5E5"/>
<path d="M5.90774 7.98593H7.76138C8.32401 7.98593 8.7802 7.53042 8.7802 6.96779V1.01851C8.7802 0.455821 8.32401 0 7.76138 0H5.90774C5.34504 0 4.88892 0.455821 4.88892 1.01851V6.96779C4.88892 7.53042 5.34504 7.98593 5.90774 7.98593Z" fill="#E5E5E5"/>
<path d="M22.188 7.98593H24.0416C24.6039 7.98593 25.06 7.53042 25.06 6.96779V1.01851C25.0601 0.455821 24.6039 0 24.0416 0H22.188C21.6254 0 21.1692 0.455821 21.1692 1.01851V6.96779C21.1692 7.53042 21.6254 7.98593 22.188 7.98593Z" fill="#E5E5E5"/>
</g>
<defs>
<clipPath id="clip0">
<rect width="30" height="30" fill="white"/>
</clipPath>
</defs>
</svg>
