<svg width="31" height="28" viewBox="0 0 31 28" fill="none" xmlns="http://www.w3.org/2000/svg">
<path d="M30.9528 0.273949L25.4982 0.273949L25.4982 16.7063L30.9528 16.7063L30.9528 0.273949ZM0.952764 15.337C0.952763 16.8433 2.18004 18.0757 3.68004 18.0757L12.2709 18.0757L10.9073 24.3748C10.9073 24.5117 10.9073 24.6487 10.9073 24.7856C10.9073 25.3333 11.18 25.8811 11.4527 26.2919L12.9528 27.6613L21.9528 18.6234C22.4982 18.2126 22.7709 17.528 22.7709 16.7063L22.771 3.01268C22.771 1.50638 21.5437 0.273949 20.0437 0.273948L7.77095 0.273948C6.68004 0.273948 5.7255 0.958631 5.31641 1.91719L1.22549 11.6397C1.08913 11.9136 1.08913 12.3244 1.08913 12.5983L1.08913 15.337L0.952764 15.337C0.952764 15.2 0.952764 15.337 0.952764 15.337Z" fill="#E71D36"/>
</svg>
