<svg width="125" height="125" viewBox="0 0 125 125" fill="none" xmlns="http://www.w3.org/2000/svg">
<rect x="0.5" y="0.5" width="124" height="124" rx="29.5" fill="#492538" stroke="#FC5E5C"/>
<g clip-path="url(#clip0)">
<path d="M95.5116 75.5703C95.0826 74.2096 93.814 73.2896 92.3875 73.3051H90.9525V38.2528C90.9525 37.6479 90.462 37.1574 89.8571 37.1574H74.5217V31.6805C74.5217 31.0756 74.0312 30.5851 73.4263 30.5851H31.8017C31.1968 30.5851 30.7063 31.0756 30.7063 31.6805V88.6405C30.7063 89.2455 31.1968 89.7359 31.8017 89.7359H67.9933L67.4456 91.425C67.0016 92.7803 67.4825 94.2667 68.6362 95.1053C69.7893 95.944 71.3516 95.9429 72.5042 95.1032L78.2459 90.9212C78.6337 90.6377 79.1605 90.6377 79.5483 90.9212L85.3007 95.1053C86.4474 95.9579 88.0177 95.9579 89.165 95.1053C90.3315 94.2774 90.8172 92.7819 90.3588 91.4261L88.1595 84.65C88.0151 84.2012 88.1777 83.7102 88.5611 83.4364L94.3242 79.2522C95.4881 78.4205 95.97 76.925 95.5116 75.5703ZM88.7617 39.3482V73.3051H85.2675C85.1525 73.3046 85.0381 73.2859 84.9289 73.2495C84.5989 73.1383 84.3401 72.8799 84.2283 72.5505L82.0263 65.7797C81.5829 64.4313 80.3238 63.5199 78.9043 63.5199C77.4848 63.5199 76.2258 64.4313 75.7824 65.7797L74.5217 69.6499V59.0651H83.2848C83.8897 59.0651 84.3802 58.5747 84.3802 57.9697C84.3802 57.3648 83.8897 56.8744 83.2848 56.8744H74.5217V52.4928H83.2848C83.8897 52.4928 84.3802 52.0024 84.3802 51.3974C84.3802 50.7925 83.8897 50.302 83.2848 50.302H74.5217V45.9205H83.2848C83.8897 45.9205 84.3802 45.43 84.3802 44.8251C84.3802 44.2202 83.8897 43.7297 83.2848 43.7297H74.5217V39.3482H88.7617ZM32.8971 87.5451V32.7759H72.3309V73.3051H65.419C63.9936 73.3014 62.7281 74.2181 62.2863 75.5735C61.8451 76.9293 62.3281 78.4151 63.4823 79.2522L69.2432 83.4353C69.6294 83.7102 69.7925 84.2034 69.6465 84.6542L68.7062 87.5451H32.8971ZM93.0336 77.4808L87.2721 81.6649C86.1179 82.4966 85.6339 83.9793 86.0757 85.3314L88.2777 92.101C88.428 92.553 88.2686 93.051 87.883 93.3318C87.4979 93.6125 86.9753 93.6115 86.5907 93.3296L80.8346 89.1422C79.6788 88.3105 78.1202 88.3105 76.9644 89.1422L71.2147 93.3264C70.8307 93.6088 70.3076 93.6099 69.9219 93.3296C69.5363 93.0488 69.3764 92.5514 69.5267 92.0989L71.7276 85.3324C72.171 83.9782 71.6864 82.4929 70.5301 81.6607L64.7729 77.4818C64.3846 77.2037 64.2215 76.7063 64.3691 76.2522C64.5167 75.7981 64.9419 75.4922 65.419 75.4959H72.539C72.9952 75.4996 73.4467 75.4018 73.8601 75.2087L73.881 75.1969L73.9007 75.1905C73.9163 75.1836 73.927 75.1707 73.9425 75.1627C74.7587 74.7835 75.3812 74.0828 75.662 73.2276L77.864 66.459C78.0116 66.0097 78.4315 65.7054 78.9043 65.7054C79.3777 65.7054 79.7975 66.0097 79.9452 66.459L82.1477 73.2329C82.59 74.5818 83.848 75.4943 85.2675 75.4959H92.3875C92.8646 75.4922 93.2893 75.7981 93.4369 76.2517C93.5851 76.7052 93.4225 77.2021 93.0347 77.4808H93.0336Z" fill="url(#paint0_linear)"/>
<path d="M40.5649 41.539H64.6633C65.2683 41.539 65.7587 41.0485 65.7587 40.4436C65.7587 39.8387 65.2683 39.3482 64.6633 39.3482H40.5649C39.9599 39.3482 39.4695 39.8387 39.4695 40.4436C39.4695 41.0485 39.9599 41.539 40.5649 41.539Z" fill="url(#paint1_linear)"/>
<path d="M40.5649 50.302H64.6633C65.2683 50.302 65.7587 49.8116 65.7587 49.2067C65.7587 48.6017 65.2683 48.1113 64.6633 48.1113H40.5649C39.9599 48.1113 39.4695 48.6017 39.4695 49.2067C39.4695 49.8116 39.9599 50.302 40.5649 50.302Z" fill="url(#paint2_linear)"/>
<path d="M40.5649 59.0651H64.6633C65.2683 59.0651 65.7587 58.5747 65.7587 57.9697C65.7587 57.3648 65.2683 56.8744 64.6633 56.8744H40.5649C39.9599 56.8744 39.4695 57.3648 39.4695 57.9697C39.4695 58.5747 39.9599 59.0651 40.5649 59.0651Z" fill="url(#paint3_linear)"/>
<path d="M65.7587 66.7328C65.7587 66.1279 65.2683 65.6375 64.6633 65.6375H40.5649C39.9599 65.6375 39.4695 66.1279 39.4695 66.7328C39.4695 67.3378 39.9599 67.8282 40.5649 67.8282H64.6633C65.2683 67.8282 65.7587 67.3378 65.7587 66.7328Z" fill="url(#paint4_linear)"/>
</g>
<defs>
<linearGradient id="paint0_linear" x1="63.1947" y1="30.5851" x2="63.1947" y2="95.7448" gradientUnits="userSpaceOnUse">
<stop stop-color="#EB5873"/>
<stop offset="1" stop-color="#EE835B"/>
</linearGradient>
<linearGradient id="paint1_linear" x1="52.6141" y1="39.3482" x2="52.6141" y2="41.539" gradientUnits="userSpaceOnUse">
<stop stop-color="#EB5873"/>
<stop offset="1" stop-color="#EE835B"/>
</linearGradient>
<linearGradient id="paint2_linear" x1="52.6141" y1="48.1113" x2="52.6141" y2="50.302" gradientUnits="userSpaceOnUse">
<stop stop-color="#EB5873"/>
<stop offset="1" stop-color="#EE835B"/>
</linearGradient>
<linearGradient id="paint3_linear" x1="52.6141" y1="56.8744" x2="52.6141" y2="59.0651" gradientUnits="userSpaceOnUse">
<stop stop-color="#EB5873"/>
<stop offset="1" stop-color="#EE835B"/>
</linearGradient>
<linearGradient id="paint4_linear" x1="52.6141" y1="65.6375" x2="52.6141" y2="67.8282" gradientUnits="userSpaceOnUse">
<stop stop-color="#EB5873"/>
<stop offset="1" stop-color="#EE835B"/>
</linearGradient>
<clipPath id="clip0">
<rect width="65.1596" height="65.1596" fill="white" transform="translate(30.5852 30.5851)"/>
</clipPath>
</defs>
</svg>
