<svg width="30" height="28" viewBox="0 0 30 28" fill="none" xmlns="http://www.w3.org/2000/svg">
<path d="M0 27.3873H5.45455V10.9549H0V27.3873ZM30 12.3243C30 10.818 28.7727 9.58556 27.2727 9.58556H18.6818L20.0455 3.28648C20.0455 3.14954 20.0455 3.0126 20.0455 2.87567C20.0455 2.32792 19.7727 1.78017 19.5001 1.36937L18 0L9 9.03781C8.45455 9.44862 8.18182 10.1333 8.18182 10.9549V24.6486C8.18182 26.1549 9.40909 27.3873 10.9091 27.3873H23.1818C24.2727 27.3873 25.2273 26.7026 25.6364 25.7441L29.7273 16.0215C29.8636 15.7476 29.8636 15.3368 29.8636 15.063V12.3242H30C30 12.4612 30 12.3243 30 12.3243Z" fill="#2EC4B6"/>
</svg>
