<svg width="25" height="25" viewBox="0 0 25 25" fill="none" xmlns="http://www.w3.org/2000/svg">
<path d="M11.7711 12.1851V0.702686C11.7711 0.312305 12.0834 0 12.4738 0C12.8642 0 13.1765 0.312305 13.1765 0.702686V12.1851C14.8057 12.513 16.0393 13.9548 16.0393 15.6829C16.0393 17.411 14.8057 18.8528 13.1765 19.1807V24.2921C13.1765 24.6825 12.8642 24.9948 12.4738 24.9948C12.0834 24.9948 11.7711 24.6825 11.7711 24.2921V19.1807C10.1419 18.8528 8.90834 17.411 8.90834 15.6829C8.90834 13.96 10.1367 12.513 11.7711 12.1851ZM12.4738 17.843C13.6658 17.843 14.6339 16.8749 14.6339 15.6829C14.6339 14.4909 13.6658 13.5228 12.4738 13.5228C11.2819 13.5228 10.3137 14.4909 10.3137 15.6829C10.3137 16.8749 11.2819 17.843 12.4738 17.843Z" fill="#FF7F4C"/>
<path d="M20.3751 6.29294V0.702686C20.3751 0.312305 20.6874 0 21.0778 0C21.4682 0 21.7805 0.312305 21.7805 0.702686V6.29294C23.4097 6.62086 24.6433 8.06267 24.6433 9.79076C24.6433 11.5188 23.4097 12.9606 21.7805 13.2886V24.2921C21.7805 24.6825 21.4682 24.9948 21.0778 24.9948C20.6874 24.9948 20.3751 24.6825 20.3751 24.2921V13.2834C18.746 12.9554 17.5124 11.5136 17.5124 9.78555C17.5124 8.05746 18.746 6.62086 20.3751 6.29294ZM21.0778 11.9509C22.2698 11.9509 23.2379 10.9827 23.2379 9.79076C23.2379 8.59879 22.2698 7.63065 21.0778 7.63065C19.8859 7.63065 18.9177 8.59879 18.9177 9.79076C18.9177 10.9827 19.8911 11.9509 21.0778 11.9509Z" fill="#FF7F4C"/>
<path d="M3.21914 6.29294V0.702686C3.21914 0.312305 3.53145 0 3.92183 0C4.31221 0 4.62451 0.312305 4.62451 0.702686V6.29294C6.2537 6.62086 7.4873 8.06267 7.4873 9.79076C7.4873 11.5188 6.2537 12.9607 4.62451 13.2886V24.2973C4.62451 24.6877 4.31221 25 3.92183 25C3.53145 25 3.21914 24.6877 3.21914 24.2973V13.2834C1.58995 12.9554 0.356348 11.5136 0.356348 9.78555C0.356348 8.05746 1.58475 6.62086 3.21914 6.29294ZM3.92183 11.9509C5.11379 11.9509 6.08193 10.9827 6.08193 9.79076C6.08193 8.59879 5.11379 7.63065 3.92183 7.63065C2.72986 7.63065 1.76172 8.59879 1.76172 9.79076C1.76172 10.9827 2.72986 11.9509 3.92183 11.9509Z" fill="#FF7F4C"/>
</svg>
