<svg width="41" height="30" viewBox="0 0 41 30" fill="none" xmlns="http://www.w3.org/2000/svg">
<g clip-path="url(#clip0)">
<path d="M30.6583 9.37087C30.21 4.55098 26.7178 1.05404 22.3474 1.05404C19.4358 1.05404 16.7698 2.58471 15.2697 5.03793C13.7832 2.55298 11.2265 1.05347 8.36152 1.05347C3.9917 1.05347 0.498914 4.5504 0.051242 9.37029C0.0158063 9.58319 -0.12948 10.7036 0.312285 12.5309C0.948948 15.1664 2.41953 17.5636 4.56398 19.4618L15.2626 28.9464L26.1449 19.4624C28.2894 17.5637 29.76 15.167 30.3966 12.5309C30.8384 10.7042 30.6931 9.58377 30.6583 9.37087Z" fill="#FF7663"/>
</g>
<rect x="20.9829" y="4.69849" width="19.4517" height="19.0024" rx="9.50122" fill="#C4C4C4"/>
<defs>
<clipPath id="clip0">
<rect width="30.7092" height="30" fill="white"/>
</clipPath>
</defs>
</svg>
