<svg width="1202" height="623" viewBox="0 0 1202 623" fill="none" xmlns="http://www.w3.org/2000/svg">
<path fill-rule="evenodd" clip-rule="evenodd" d="M87.4156 379.988C91.1173 379.988 94.1182 377.02 94.1182 373.36C94.1182 369.699 91.1173 366.731 87.4156 366.731C83.7138 366.731 80.7129 369.699 80.7129 373.36C80.7129 377.02 83.7138 379.988 87.4156 379.988ZM114.102 379.988C117.804 379.988 120.805 377.02 120.805 373.36C120.805 369.699 117.804 366.731 114.102 366.731C110.4 366.731 107.399 369.699 107.399 373.36C107.399 377.02 110.4 379.988 114.102 379.988ZM147.492 373.36C147.492 377.02 144.491 379.988 140.789 379.988C137.087 379.988 134.086 377.02 134.086 373.36C134.086 369.699 137.087 366.731 140.789 366.731C144.491 366.731 147.492 369.699 147.492 373.36ZM167.477 379.988C171.179 379.988 174.179 377.02 174.179 373.36C174.179 369.699 171.179 366.731 167.477 366.731C163.775 366.731 160.774 369.699 160.774 373.36C160.774 377.02 163.775 379.988 167.477 379.988ZM94.1182 400.084C94.1182 403.744 91.1173 406.711 87.4156 406.711C83.7138 406.711 80.7129 403.744 80.7129 400.084C80.7129 396.423 83.7138 393.456 87.4156 393.456C91.1173 393.456 94.1182 396.423 94.1182 400.084ZM114.102 406.711C117.804 406.711 120.805 403.744 120.805 400.084C120.805 396.423 117.804 393.456 114.102 393.456C110.4 393.456 107.4 396.423 107.4 400.084C107.4 403.744 110.4 406.711 114.102 406.711ZM147.492 400.084C147.492 403.744 144.491 406.711 140.789 406.711C137.087 406.711 134.086 403.744 134.086 400.084C134.086 396.423 137.087 393.456 140.789 393.456C144.491 393.456 147.492 396.423 147.492 400.084ZM167.477 406.711C171.179 406.711 174.179 403.744 174.179 400.084C174.179 396.423 171.179 393.456 167.477 393.456C163.775 393.456 160.774 396.423 160.774 400.084C160.774 403.744 163.775 406.711 167.477 406.711ZM94.1182 426.807C94.1182 430.468 91.1173 433.436 87.4156 433.436C83.7138 433.436 80.7129 430.468 80.7129 426.807C80.7129 423.147 83.7138 420.18 87.4156 420.18C91.1173 420.18 94.1182 423.147 94.1182 426.807ZM114.102 433.436C117.804 433.436 120.805 430.468 120.805 426.807C120.805 423.147 117.804 420.18 114.102 420.18C110.4 420.18 107.4 423.147 107.4 426.807C107.4 430.468 110.4 433.436 114.102 433.436ZM147.492 426.807C147.492 430.468 144.491 433.436 140.789 433.436C137.087 433.436 134.086 430.468 134.086 426.807C134.086 423.147 137.087 420.18 140.789 420.18C144.491 420.18 147.492 423.147 147.492 426.807ZM167.477 433.436C171.179 433.436 174.179 430.468 174.179 426.807C174.179 423.147 171.179 420.18 167.477 420.18C163.775 420.18 160.774 423.147 160.774 426.807C160.774 430.468 163.775 433.436 167.477 433.436ZM94.1182 453.532C94.1182 457.193 91.1173 460.16 87.4156 460.16C83.7138 460.16 80.7129 457.193 80.7129 453.532C80.7129 449.872 83.7138 446.903 87.4156 446.903C91.1173 446.903 94.1182 449.872 94.1182 453.532ZM114.102 460.16C117.804 460.16 120.805 457.193 120.805 453.532C120.805 449.872 117.804 446.903 114.102 446.903C110.4 446.903 107.4 449.872 107.4 453.532C107.4 457.193 110.4 460.16 114.102 460.16ZM147.492 453.532C147.492 457.193 144.491 460.16 140.789 460.16C137.087 460.16 134.086 457.193 134.086 453.532C134.086 449.872 137.087 446.903 140.789 446.903C144.491 446.903 147.492 449.872 147.492 453.532ZM167.477 460.16C171.179 460.16 174.179 457.193 174.179 453.532C174.179 449.872 171.179 446.903 167.477 446.903C163.775 446.903 160.774 449.872 160.774 453.532C160.774 457.193 163.775 460.16 167.477 460.16Z" fill="white"/>
<g opacity="0.4">
<g opacity="0.4" filter="url(#filter0_d)">
<path opacity="0.4" d="M1125.05 9.21143H332.449C325.567 9.21143 319.987 14.7887 319.987 21.6686V242.16C319.987 249.04 325.567 254.617 332.449 254.617H1125.05C1131.93 254.617 1137.51 249.04 1137.51 242.16V21.6686C1137.51 14.7887 1131.93 9.21143 1125.05 9.21143Z" fill="url(#paint0_linear)"/>
<path opacity="0.4" d="M572.97 52.8114H452.086C446.58 52.8114 442.117 57.2732 442.117 62.7771C442.117 68.2811 446.58 72.7429 452.086 72.7429H572.97C578.476 72.7429 582.94 68.2811 582.94 62.7771C582.94 57.2732 578.476 52.8114 572.97 52.8114Z" fill="#EE7D5E"/>
<path opacity="0.4" d="M1090.15 95.1657H448.348C444.906 95.1657 442.117 97.9543 442.117 101.394C442.117 104.834 444.906 107.623 448.348 107.623H1090.15C1093.59 107.623 1096.38 104.834 1096.38 101.394C1096.38 97.9543 1093.59 95.1657 1090.15 95.1657Z" fill="#7C4D59"/>
<path opacity="0.4" d="M946.836 123.817H448.348C444.906 123.817 442.117 126.606 442.117 130.046C442.117 133.486 444.906 136.274 448.348 136.274H946.836C950.277 136.274 953.067 133.486 953.067 130.046C953.067 126.606 950.277 123.817 946.836 123.817Z" fill="#7C4D59"/>
<path opacity="0.4" d="M600.387 152.469H448.348C444.906 152.469 442.117 155.257 442.117 158.697C442.117 162.137 444.906 164.926 448.348 164.926H600.387C603.828 164.926 606.618 162.137 606.618 158.697C606.618 155.257 603.828 152.469 600.387 152.469Z" fill="#7C4D59"/>
<path opacity="0.4" d="M600.387 202.297H448.348C444.906 202.297 442.117 205.086 442.117 208.526C442.117 211.966 444.906 214.754 448.348 214.754H600.387C603.828 214.754 606.618 211.966 606.618 208.526C606.618 205.086 603.828 202.297 600.387 202.297Z" fill="#9E737E"/>
<path opacity="0.4" d="M787.32 202.297H635.281C631.84 202.297 629.05 205.086 629.05 208.526C629.05 211.966 631.84 214.754 635.281 214.754H787.32C790.761 214.754 793.551 211.966 793.551 208.526C793.551 205.086 790.761 202.297 787.32 202.297Z" fill="#9E737E"/>
</g>
<path opacity="0.4" d="M416.694 76.48C416.694 59.2803 402.745 45.3372 385.538 45.3372C368.332 45.3372 354.383 59.2803 354.383 76.48C354.383 93.6797 368.332 107.623 385.538 107.623C402.745 107.623 416.694 93.6797 416.694 76.48Z" fill="#FA4767"/>
</g>
<g filter="url(#filter1_d)">
<path d="M963.037 258.354H170.441C163.558 258.354 157.979 263.932 157.979 270.811V491.303C157.979 498.183 163.558 503.76 170.441 503.76H963.037C969.919 503.76 975.499 498.183 975.499 491.303V270.811C975.499 263.932 969.919 258.354 963.037 258.354Z" fill="url(#paint1_linear)"/>
<path d="M254.685 325.623C254.685 308.423 240.737 294.48 223.53 294.48C206.323 294.48 192.374 308.423 192.374 325.623C192.374 342.823 206.323 356.766 223.53 356.766C240.737 356.766 254.685 342.823 254.685 325.623Z" fill="#FA4767"/>
<path d="M410.961 301.954H290.078C284.572 301.954 280.108 306.416 280.108 311.92C280.108 317.424 284.572 321.886 290.078 321.886H410.961C416.467 321.886 420.931 317.424 420.931 311.92C420.931 306.416 416.467 301.954 410.961 301.954Z" fill="#EE7D5E"/>
<path d="M928.143 344.309H286.339C282.898 344.309 280.108 347.097 280.108 350.537C280.108 353.977 282.898 356.766 286.339 356.766H928.143C931.584 356.766 934.374 353.977 934.374 350.537C934.374 347.097 931.584 344.309 928.143 344.309Z" fill="#7C4D59"/>
<path d="M784.827 372.96H286.339C282.898 372.96 280.108 375.749 280.108 379.189C280.108 382.628 282.898 385.417 286.339 385.417H784.827C788.269 385.417 791.059 382.628 791.059 379.189C791.059 375.749 788.269 372.96 784.827 372.96Z" fill="#7C4D59"/>
<path d="M438.378 401.611H286.339C282.898 401.611 280.108 404.4 280.108 407.84C280.108 411.28 282.898 414.069 286.339 414.069H438.378C441.82 414.069 444.609 411.28 444.609 407.84C444.609 404.4 441.82 401.611 438.378 401.611Z" fill="#7C4D59"/>
<path d="M438.378 451.44H286.339C282.898 451.44 280.108 454.229 280.108 457.669C280.108 461.108 282.898 463.897 286.339 463.897H438.378C441.82 463.897 444.609 461.108 444.609 457.669C444.609 454.229 441.82 451.44 438.378 451.44Z" fill="#9E737E"/>
<path d="M625.311 451.44H473.272C469.831 451.44 467.041 454.229 467.041 457.669C467.041 461.108 469.831 463.897 473.272 463.897H625.311C628.752 463.897 631.542 461.108 631.542 457.669C631.542 454.229 628.752 451.44 625.311 451.44Z" fill="#9E737E"/>
</g>
<path fill-rule="evenodd" clip-rule="evenodd" d="M837.64 117.142C841.342 117.142 844.343 114.175 844.343 110.514C844.343 106.853 841.342 103.886 837.64 103.886C833.938 103.886 830.938 106.853 830.938 110.514C830.938 114.175 833.938 117.142 837.64 117.142ZM864.326 117.142C868.029 117.142 871.03 114.175 871.03 110.514C871.03 106.853 868.029 103.886 864.326 103.886C860.625 103.886 857.624 106.853 857.624 110.514C857.624 114.175 860.625 117.142 864.326 117.142ZM897.716 110.514C897.716 114.175 894.715 117.142 891.014 117.142C887.311 117.142 884.311 114.175 884.311 110.514C884.311 106.853 887.311 103.886 891.014 103.886C894.715 103.886 897.716 106.853 897.716 110.514ZM917.702 117.142C921.403 117.142 924.404 114.175 924.404 110.514C924.404 106.853 921.403 103.886 917.702 103.886C913.999 103.886 910.998 106.853 910.998 110.514C910.998 114.175 913.999 117.142 917.702 117.142ZM844.343 137.239C844.343 140.898 841.342 143.866 837.64 143.866C833.938 143.866 830.938 140.898 830.938 137.239C830.938 133.577 833.938 130.61 837.64 130.61C841.342 130.61 844.343 133.577 844.343 137.239ZM864.326 143.866C868.029 143.866 871.03 140.898 871.03 137.239C871.03 133.577 868.029 130.61 864.326 130.61C860.625 130.61 857.624 133.577 857.624 137.239C857.624 140.898 860.625 143.866 864.326 143.866ZM897.716 137.239C897.716 140.898 894.715 143.866 891.014 143.866C887.311 143.866 884.311 140.898 884.311 137.239C884.311 133.577 887.311 130.61 891.014 130.61C894.715 130.61 897.716 133.577 897.716 137.239ZM917.702 143.866C921.403 143.866 924.404 140.898 924.404 137.239C924.404 133.577 921.403 130.61 917.702 130.61C913.999 130.61 910.998 133.577 910.998 137.239C910.998 140.898 913.999 143.866 917.702 143.866ZM844.343 163.962C844.343 167.623 841.342 170.59 837.64 170.59C833.938 170.59 830.938 167.623 830.938 163.962C830.938 160.302 833.938 157.334 837.64 157.334C841.342 157.334 844.343 160.302 844.343 163.962ZM864.326 170.59C868.029 170.59 871.03 167.623 871.03 163.962C871.03 160.302 868.029 157.334 864.326 157.334C860.625 157.334 857.624 160.302 857.624 163.962C857.624 167.623 860.625 170.59 864.326 170.59ZM897.716 163.962C897.716 167.623 894.715 170.59 891.014 170.59C887.311 170.59 884.311 167.623 884.311 163.962C884.311 160.302 887.311 157.334 891.014 157.334C894.715 157.334 897.716 160.302 897.716 163.962ZM917.702 170.59C921.403 170.59 924.404 167.623 924.404 163.962C924.404 160.302 921.403 157.334 917.702 157.334C913.999 157.334 910.998 160.302 910.998 163.962C910.998 167.623 913.999 170.59 917.702 170.59ZM844.343 190.686C844.343 194.347 841.342 197.314 837.64 197.314C833.938 197.314 830.938 194.347 830.938 190.686C830.938 187.026 833.938 184.057 837.64 184.057C841.342 184.057 844.343 187.026 844.343 190.686ZM864.326 197.314C868.029 197.314 871.03 194.347 871.03 190.686C871.03 187.026 868.029 184.057 864.326 184.057C860.625 184.057 857.624 187.026 857.624 190.686C857.624 194.347 860.625 197.314 864.326 197.314ZM897.716 190.686C897.716 194.347 894.715 197.314 891.014 197.314C887.311 197.314 884.311 194.347 884.311 190.686C884.311 187.026 887.311 184.057 891.014 184.057C894.715 184.057 897.716 187.026 897.716 190.686ZM917.702 197.314C921.403 197.314 924.404 194.347 924.404 190.686C924.404 187.026 921.403 184.057 917.702 184.057C913.999 184.057 910.998 187.026 910.998 190.686C910.998 194.347 913.999 197.314 917.702 197.314Z" fill="white"/>
<g filter="url(#filter2_d)">
<path d="M865.832 143.749H73.2354C66.3527 143.749 60.7732 149.326 60.7732 156.206V376.697C60.7732 383.577 66.3527 389.154 73.2354 389.154H865.832C872.714 389.154 878.294 383.577 878.294 376.697V156.206C878.294 149.326 872.714 143.749 865.832 143.749Z" fill="url(#paint2_linear)"/>
<path d="M157.48 211.017C157.48 193.817 143.531 179.874 126.324 179.874C109.118 179.874 95.1689 193.817 95.1689 211.017C95.1689 228.217 109.118 242.16 126.324 242.16C143.531 242.16 157.48 228.217 157.48 211.017Z" fill="#FA4767"/>
<path d="M313.756 187.349H192.873C187.366 187.349 182.903 191.81 182.903 197.314C182.903 202.818 187.366 207.28 192.873 207.28H313.756C319.262 207.28 323.726 202.818 323.726 197.314C323.726 191.81 319.262 187.349 313.756 187.349Z" fill="#EE7D5E"/>
<path d="M830.938 229.703H189.134C185.693 229.703 182.903 232.491 182.903 235.931C182.903 239.371 185.693 242.16 189.134 242.16H830.938C834.379 242.16 837.169 239.371 837.169 235.931C837.169 232.491 834.379 229.703 830.938 229.703Z" fill="#7C4D59"/>
<path d="M687.622 258.354H189.134C185.693 258.354 182.903 261.143 182.903 264.583C182.903 268.023 185.693 270.811 189.134 270.811H687.622C691.063 270.811 693.853 268.023 693.853 264.583C693.853 261.143 691.063 258.354 687.622 258.354Z" fill="#7C4D59"/>
<path d="M341.173 287.006H189.134C185.693 287.006 182.903 289.794 182.903 293.234C182.903 296.674 185.693 299.463 189.134 299.463H341.173C344.614 299.463 347.404 296.674 347.404 293.234C347.404 289.794 344.614 287.006 341.173 287.006Z" fill="#7C4D59"/>
<path d="M341.173 336.834H189.134C185.693 336.834 182.903 339.623 182.903 343.063C182.903 346.503 185.693 349.291 189.134 349.291H341.173C344.614 349.291 347.404 346.503 347.404 343.063C347.404 339.623 344.614 336.834 341.173 336.834Z" fill="#9E737E"/>
<path d="M528.106 336.834H376.067C372.625 336.834 369.836 339.623 369.836 343.063C369.836 346.503 372.625 349.291 376.067 349.291H528.106C531.547 349.291 534.337 346.503 534.337 343.063C534.337 339.623 531.547 336.834 528.106 336.834Z" fill="#9E737E"/>
</g>
<defs>
<filter id="filter0_d" x="255.987" y="0.211426" width="945.52" height="373.406" filterUnits="userSpaceOnUse" color-interpolation-filters="sRGB">
<feFlood flood-opacity="0" result="BackgroundImageFix"/>
<feColorMatrix in="SourceAlpha" type="matrix" values="0 0 0 0 0 0 0 0 0 0 0 0 0 0 0 0 0 0 127 0"/>
<feOffset dy="55"/>
<feGaussianBlur stdDeviation="32"/>
<feColorMatrix type="matrix" values="0 0 0 0 0.110352 0 0 0 0 0.0674969 0 0 0 0 0.100148 0 0 0 0.3 0"/>
<feBlend mode="normal" in2="BackgroundImageFix" result="effect1_dropShadow"/>
<feBlend mode="normal" in="SourceGraphic" in2="effect1_dropShadow" result="shape"/>
</filter>
<filter id="filter1_d" x="93.9785" y="249.354" width="945.52" height="373.406" filterUnits="userSpaceOnUse" color-interpolation-filters="sRGB">
<feFlood flood-opacity="0" result="BackgroundImageFix"/>
<feColorMatrix in="SourceAlpha" type="matrix" values="0 0 0 0 0 0 0 0 0 0 0 0 0 0 0 0 0 0 127 0"/>
<feOffset dy="55"/>
<feGaussianBlur stdDeviation="32"/>
<feColorMatrix type="matrix" values="0 0 0 0 0.110352 0 0 0 0 0.0674969 0 0 0 0 0.100148 0 0 0 0.3 0"/>
<feBlend mode="normal" in2="BackgroundImageFix" result="effect1_dropShadow"/>
<feBlend mode="normal" in="SourceGraphic" in2="effect1_dropShadow" result="shape"/>
</filter>
<filter id="filter2_d" x="0.773193" y="113.749" width="937.521" height="365.406" filterUnits="userSpaceOnUse" color-interpolation-filters="sRGB">
<feFlood flood-opacity="0" result="BackgroundImageFix"/>
<feColorMatrix in="SourceAlpha" type="matrix" values="0 0 0 0 0 0 0 0 0 0 0 0 0 0 0 0 0 0 127 0"/>
<feOffset dy="30"/>
<feGaussianBlur stdDeviation="30"/>
<feColorMatrix type="matrix" values="0 0 0 0 0.110352 0 0 0 0 0.0674969 0 0 0 0 0.100148 0 0 0 0.6 0"/>
<feBlend mode="normal" in2="BackgroundImageFix" result="effect1_dropShadow"/>
<feBlend mode="normal" in="SourceGraphic" in2="effect1_dropShadow" result="shape"/>
</filter>
<linearGradient id="paint0_linear" x1="509.413" y1="-192.371" x2="864.575" y2="430.569" gradientUnits="userSpaceOnUse">
<stop stop-color="#43272A"/>
<stop offset="1" stop-color="#441F30"/>
</linearGradient>
<linearGradient id="paint1_linear" x1="347.404" y1="56.7709" x2="702.566" y2="679.712" gradientUnits="userSpaceOnUse">
<stop stop-color="#43272A"/>
<stop offset="1" stop-color="#441F30"/>
</linearGradient>
<linearGradient id="paint2_linear" x1="250.199" y1="-57.8348" x2="605.361" y2="565.106" gradientUnits="userSpaceOnUse">
<stop stop-color="#43272A"/>
<stop offset="1" stop-color="#441F30"/>
</linearGradient>
</defs>
</svg>
